<svg width="66" height="66" viewBox="0 0 66 66" fill="none" xmlns="http://www.w3.org/2000/svg">
<circle cx="33" cy="33" r="33" fill="white" fill-opacity="0.1"/>
<path d="M32 32L32.0547 31.9733C32.2256 31.8879 32.4175 31.8533 32.6076 31.8735C32.7976 31.8938 32.9779 31.9681 33.127 32.0876C33.2761 32.2071 33.3879 32.3669 33.449 32.548C33.5102 32.7291 33.5181 32.9239 33.472 33.1093L32.528 36.8907C32.4815 37.0762 32.4893 37.2712 32.5503 37.4525C32.6113 37.6338 32.723 37.7938 32.8722 37.9136C33.0214 38.0333 33.2018 38.1077 33.392 38.128C33.5822 38.1483 33.7742 38.1136 33.9453 38.028L34 38M45 33C45 34.5759 44.6896 36.1363 44.0866 37.5922C43.4835 39.0481 42.5996 40.371 41.4853 41.4853C40.371 42.5996 39.0481 43.4835 37.5922 44.0866C36.1363 44.6896 34.5759 45 33 45C31.4241 45 29.8637 44.6896 28.4078 44.0866C26.9519 43.4835 25.629 42.5996 24.5147 41.4853C23.4004 40.371 22.5165 39.0481 21.9134 37.5922C21.3104 36.1363 21 34.5759 21 33C21 29.8174 22.2643 26.7652 24.5147 24.5147C26.7652 22.2643 29.8174 21 33 21C36.1826 21 39.2348 22.2643 41.4853 24.5147C43.7357 26.7652 45 29.8174 45 33ZM33 28H33.0107V28.0107H33V28Z" stroke="white" stroke-width="1.5" stroke-linecap="round" stroke-linejoin="round"/>
</svg>
