<svg width="66" height="66" viewBox="0 0 66 66" fill="none" xmlns="http://www.w3.org/2000/svg">
<circle cx="33" cy="33" r="33" fill="white" fill-opacity="0.1"/>
<path d="M33 24.3334C34.2377 24.3334 35.4247 24.825 36.2998 25.7002C37.175 26.5754 37.6667 27.7624 37.6667 29C37.6667 30.2377 37.175 31.4247 36.2998 32.2999C35.4247 33.175 34.2377 33.6667 33 33.6667C31.7623 33.6667 30.5753 33.175 29.7002 32.2999C28.825 31.4247 28.3333 30.2377 28.3333 29C28.3333 27.7624 28.825 26.5754 29.7002 25.7002C30.5753 24.825 31.7623 24.3334 33 24.3334ZM23.6667 27.6667C24.4133 27.6667 25.1067 27.8667 25.7067 28.2267C25.5067 30.1334 26.0667 32.0267 27.2133 33.5067C26.5467 34.7867 25.2133 35.6667 23.6667 35.6667C22.6058 35.6667 21.5884 35.2453 20.8382 34.4951C20.0881 33.745 19.6667 32.7276 19.6667 31.6667C19.6667 30.6058 20.0881 29.5884 20.8382 28.8383C21.5884 28.0881 22.6058 27.6667 23.6667 27.6667ZM42.3333 27.6667C43.3942 27.6667 44.4116 28.0881 45.1618 28.8383C45.9119 29.5884 46.3333 30.6058 46.3333 31.6667C46.3333 32.7276 45.9119 33.745 45.1618 34.4951C44.4116 35.2453 43.3942 35.6667 42.3333 35.6667C40.7867 35.6667 39.4533 34.7867 38.7867 33.5067C39.9492 32.0059 40.4888 30.115 40.2933 28.2267C40.8933 27.8667 41.5867 27.6667 42.3333 27.6667ZM24.3333 41.3334C24.3333 38.5734 28.2133 36.3334 33 36.3334C37.7867 36.3334 41.6667 38.5734 41.6667 41.3334V43.6667H24.3333V41.3334ZM17 43.6667V41.6667C17 39.8134 19.52 38.2534 22.9333 37.8C22.1467 38.7067 21.6667 39.96 21.6667 41.3334V43.6667H17ZM49 43.6667H44.3333V41.3334C44.3333 39.96 43.8533 38.7067 43.0667 37.8C46.48 38.2534 49 39.8134 49 41.6667V43.6667Z" fill="white"/>
</svg>
