<svg width="66" height="66" viewBox="0 0 66 66" fill="none" xmlns="http://www.w3.org/2000/svg">
<circle cx="33" cy="33" r="33" fill="white" fill-opacity="0.1"/>
<path d="M43.6665 25C44.4398 25 45.0665 25.2666 45.5598 25.7866C46.0665 26.3333 46.3332 26.9333 46.3332 27.6666V42.3333C46.3332 43.0666 46.0665 43.6666 45.5598 44.2133C45.0665 44.7333 44.4398 45 43.6665 45H22.3332C21.5598 45 20.9332 44.7333 20.4398 44.2133C19.9332 43.6666 19.6665 43.0666 19.6665 42.3333V27.6666C19.6665 26.9333 19.9332 26.3333 20.4398 25.7866C20.9332 25.2666 21.5598 25 22.3332 25H27.6665V22.3333C27.6665 21.56 27.9332 20.9333 28.4398 20.44C28.9332 19.9333 29.5598 19.6666 30.3332 19.6666H35.6665C36.4398 19.6666 37.0665 19.9333 37.5598 20.44C38.0665 20.9333 38.3332 21.56 38.3332 22.3333V25H43.6665ZM22.3332 27.6666V42.3333H43.6665V27.6666H22.3332ZM35.6665 25V22.3333H30.3332V25H35.6665ZM32.9998 29C33.7955 29 34.5585 29.316 35.1212 29.8786C35.6838 30.4412 35.9998 31.2043 35.9998 32C35.9998 33.6666 34.6532 35 32.9998 35C32.2042 35 31.4411 34.6839 30.8785 34.1213C30.3159 33.5587 29.9998 32.7956 29.9998 32C29.9998 30.3333 31.3465 29 32.9998 29ZM38.9998 41H26.9998V39.5066C26.9998 37.84 29.6665 36.5066 32.9998 36.5066C36.3332 36.5066 38.9998 37.84 38.9998 39.5066V41Z" fill="white"/>
</svg>
