<svg width="66" height="66" viewBox="0 0 66 66" fill="none" xmlns="http://www.w3.org/2000/svg">
<circle opacity="0.1" cx="33" cy="33" r="33" fill="white"/>
<path d="M32 37H26C25.2044 37 24.4413 37.3161 23.8787 37.8787C23.3161 38.4413 23 39.2044 23 40V42H25V40C25 39.7348 25.1054 39.4804 25.2929 39.2929C25.4804 39.1054 25.7348 39 26 39H32C32.2652 39 32.5196 39.1054 32.7071 39.2929C32.8946 39.4804 33 39.7348 33 40V42H35V40C35 39.2044 34.6839 38.4413 34.1213 37.8787C33.5587 37.3161 32.7956 37 32 37ZM29 36C29.7911 36 30.5645 35.7654 31.2223 35.3259C31.8801 34.8864 32.3928 34.2616 32.6955 33.5307C32.9983 32.7998 33.0775 31.9956 32.9231 31.2196C32.7688 30.4437 32.3878 29.731 31.8284 29.1716C31.269 28.6122 30.5563 28.2312 29.7804 28.0769C29.0044 27.9225 28.2002 28.0017 27.4693 28.3045C26.7384 28.6072 26.1136 29.1199 25.6741 29.7777C25.2346 30.4355 25 31.2089 25 32C25 33.0609 25.4214 34.0783 26.1716 34.8284C26.9217 35.5786 27.9391 36 29 36ZM29 30C29.3956 30 29.7822 30.1173 30.1111 30.3371C30.44 30.5568 30.6964 30.8692 30.8478 31.2346C30.9991 31.6001 31.0387 32.0022 30.9616 32.3902C30.8844 32.7781 30.6939 33.1345 30.4142 33.4142C30.1345 33.6939 29.7781 33.8844 29.3902 33.9616C29.0022 34.0387 28.6001 33.9991 28.2346 33.8478C27.8692 33.6964 27.5568 33.44 27.3371 33.1111C27.1173 32.7822 27 32.3956 27 32C27 31.4696 27.2107 30.9609 27.5858 30.5858C27.9609 30.2107 28.4696 30 29 30Z" fill="white"/>
<path d="M45 36V45H21V25H33V23H21C20.4696 23 19.9609 23.2107 19.5858 23.5858C19.2107 23.9609 19 24.4696 19 25V45C19 45.5304 19.2107 46.0391 19.5858 46.4142C19.9609 46.7893 20.4696 47 21 47H45C45.5304 47 46.0391 46.7893 46.4142 46.4142C46.7893 46.0391 47 45.5304 47 45V36H45Z" fill="white"/>
<path d="M37 36H43V38H37V36ZM39 40H43V42H39V40ZM49 27V25H46.899C46.77 24.374 46.5215 23.7788 46.167 23.247L47.657 21.757L46.243 20.343L44.753 21.833C44.2212 21.4785 43.626 21.23 43 21.101V19H41V21.101C40.374 21.23 39.7788 21.4785 39.247 21.833L37.757 20.343L36.343 21.757L37.833 23.247C37.4785 23.7788 37.23 24.374 37.101 25H35V27H37.101C37.23 27.626 37.4785 28.2212 37.833 28.753L36.343 30.243L37.757 31.657L39.247 30.167C39.7788 30.5215 40.374 30.77 41 30.899V33H43V30.899C43.626 30.77 44.2212 30.5215 44.753 30.167L46.243 31.657L47.657 30.243L46.167 28.753C46.5215 28.2212 46.77 27.626 46.899 27H49ZM42 29C41.4067 29 40.8266 28.8241 40.3333 28.4944C39.8399 28.1648 39.4554 27.6962 39.2284 27.1481C39.0013 26.5999 38.9419 25.9967 39.0576 25.4147C39.1734 24.8328 39.4591 24.2982 39.8787 23.8787C40.2982 23.4591 40.8328 23.1734 41.4147 23.0576C41.9967 22.9419 42.5999 23.0013 43.1481 23.2284C43.6962 23.4554 44.1648 23.8399 44.4944 24.3333C44.8241 24.8266 45 25.4067 45 26C44.9992 26.7954 44.6829 27.558 44.1204 28.1204C43.558 28.6829 42.7954 28.9992 42 29Z" fill="white"/>
</svg>
