<svg width="66" height="66" viewBox="0 0 66 66" fill="none" xmlns="http://www.w3.org/2000/svg">
<circle cx="33" cy="33" r="33" fill="white" fill-opacity="0.1"/>
<path d="M32.9998 19.6666C25.6265 19.6666 19.6665 25.6666 19.6665 33C19.6665 36.5362 21.0713 39.9276 23.5717 42.428C24.8099 43.6662 26.2797 44.6483 27.8974 45.3184C29.5151 45.9884 31.2489 46.3333 32.9998 46.3333C36.5361 46.3333 39.9274 44.9285 42.4279 42.428C44.9284 39.9276 46.3332 36.5362 46.3332 33C46.3332 31.249 45.9883 29.5152 45.3182 27.8975C44.6482 26.2798 43.666 24.81 42.4279 23.5719C41.1898 22.3338 39.72 21.3516 38.1023 20.6816C36.4846 20.0115 34.7508 19.6666 32.9998 19.6666ZM37.7998 28.12C39.2265 28.12 40.3732 29.2666 40.3732 30.6933C40.3732 32.12 39.2265 33.2666 37.7998 33.2666C37.1173 33.2666 36.4628 32.9955 35.9802 32.5129C35.4976 32.0303 35.2265 31.3758 35.2265 30.6933C35.2132 29.2666 36.3732 28.12 37.7998 28.12ZM29.7998 26.0133C31.5332 26.0133 32.9465 27.4266 32.9465 29.16C32.9465 30.8933 31.5332 32.3333 29.7998 32.3333C28.0665 32.3333 26.6532 30.8933 26.6532 29.16C26.6532 27.4133 28.0532 26.0133 29.7998 26.0133ZM29.7998 38.1866V43.1866C26.5998 42.1866 24.0665 39.72 22.9465 36.5733C24.3332 35.08 27.8398 34.3333 29.7998 34.3333C30.5065 34.3333 31.3998 34.4266 32.3332 34.6133C30.1465 35.7733 29.7998 37.3066 29.7998 38.1866ZM32.9998 43.6666C32.6265 43.6666 32.2798 43.6666 31.9332 43.6133V38.1866C31.9332 36.2933 35.8532 35.3466 37.7998 35.3466C39.2265 35.3466 41.6665 35.8666 42.9198 36.88C41.3598 40.84 37.5065 43.6666 32.9998 43.6666Z" fill="white"/>
</svg>
