<svg width="66" height="66" viewBox="0 0 66 66" fill="none" xmlns="http://www.w3.org/2000/svg">
<circle opacity="0.1" cx="33" cy="33" r="33" fill="white"/>
<path d="M30.9333 34.3L32.6667 36.0333C32.9111 36.2778 33.2222 36.4 33.6 36.4C33.9778 36.4 34.2889 36.2778 34.5333 36.0333L38.3333 32.2333V33.0333C38.3333 33.4111 38.4613 33.7222 38.7173 33.9667C38.9724 34.2111 39.2889 34.3333 39.6667 34.3333C40.0444 34.3333 40.3609 34.2053 40.616 33.9493C40.872 33.6942 41 33.3778 41 33V29C41 28.6222 40.872 28.3053 40.616 28.0493C40.3609 27.7942 40.0444 27.6667 39.6667 27.6667H35.6333C35.2556 27.6667 34.9444 27.7942 34.7 28.0493C34.4556 28.3053 34.3333 28.6222 34.3333 29C34.3333 29.3778 34.4613 29.6942 34.7173 29.9493C34.9724 30.2053 35.2889 30.3333 35.6667 30.3333H36.4333L33.6 33.2L31.8667 31.4667C31.6222 31.2 31.3111 31.0667 30.9333 31.0667C30.5556 31.0667 30.2444 31.2 30 31.4667L25.9333 35.5333C25.6667 35.7778 25.5333 36.0889 25.5333 36.4667C25.5333 36.8444 25.6667 37.1556 25.9333 37.4C26.1778 37.6667 26.4889 37.8 26.8667 37.8C27.2444 37.8 27.5556 37.6667 27.8 37.4L30.9333 34.3ZM23.6667 45C22.9333 45 22.3053 44.7391 21.7827 44.2173C21.2609 43.6947 21 43.0667 21 42.3333V23.6667C21 22.9333 21.2609 22.3053 21.7827 21.7827C22.3053 21.2609 22.9333 21 23.6667 21H42.3333C43.0667 21 43.6947 21.2609 44.2173 21.7827C44.7391 22.3053 45 22.9333 45 23.6667V42.3333C45 43.0667 44.7391 43.6947 44.2173 44.2173C43.6947 44.7391 43.0667 45 42.3333 45H23.6667Z" fill="white"/>
</svg>
