<svg width="241" height="61" viewBox="0 0 241 61" fill="none" xmlns="http://www.w3.org/2000/svg">
<path d="M70.6212 0.158203H77.7727L31.2882 59.924H24.1367L70.6212 0.158203Z" fill="#66B38E" fill-opacity="0.8"/>
<path d="M59.0763 0.158203H66.2789L19.4623 59.924H12.2598L59.0763 0.158203Z" fill="#82C0A3" fill-opacity="0.7"/>
<path d="M47.4806 0.158203H54.7853L7.30471 59.924H0L47.4806 0.158203Z" fill="#B3BFB8" fill-opacity="0.6"/>
<path d="M82.3697 0.158203L82.3697 60.6902H34.4805L82.3697 0.158203Z" fill="#1E944F"/>
<path d="M231.402 43.45V13.9502H239.83V43.45H231.402Z" fill="#393939"/>
<path d="M96.9287 43.4501V12.4923C96.9287 6.52673 101.754 1.69067 107.707 1.69067H143.022C144.688 1.69067 146.184 2.09756 147.509 2.91133C148.834 3.72511 149.881 4.79586 150.65 6.1236C151.462 7.45133 151.868 8.92898 151.868 10.5565V43.4501H143.534V10.8778C143.534 10.6636 143.449 10.4923 143.278 10.3638C143.107 10.1925 142.915 10.1068 142.701 10.1068H129.431C129.217 10.1068 129.025 10.1925 128.854 10.3638C128.726 10.4923 128.662 10.6636 128.662 10.8778V43.4501H120.2V10.8778C120.2 10.6636 120.114 10.4923 119.943 10.3638C119.815 10.1925 119.644 10.1068 119.43 10.1068H106.096C105.882 10.1068 105.69 10.1925 105.519 10.3638C105.391 10.4923 105.327 10.6636 105.327 10.8778V43.4501H96.9287Z" fill="#393939"/>
<path d="M168.25 43.4501C166.626 43.4501 165.152 43.0432 163.827 42.2295C162.502 41.4157 161.434 40.3449 160.621 39.0172C159.809 37.6895 159.403 36.2118 159.403 34.5843V22.8916C159.403 21.2641 159.809 19.7864 160.621 18.4587C161.434 17.131 162.502 16.0602 163.827 15.2464C165.152 14.4327 166.626 14.0258 168.25 14.0258H188.316C189.94 14.0258 191.414 14.4327 192.739 15.2464C194.107 16.0602 195.175 17.131 195.944 18.4587C196.756 19.7864 197.162 21.2641 197.162 22.8916V34.5843C197.162 36.2118 196.756 37.6895 195.944 39.0172C195.175 40.3449 194.128 41.4157 192.803 42.2295C191.478 43.0432 189.982 43.4501 188.316 43.4501H168.25ZM168.571 35.034H187.995C188.209 35.034 188.38 34.9697 188.508 34.8412C188.679 34.6699 188.764 34.4772 188.764 34.263V23.2128C188.764 22.9987 188.679 22.8274 188.508 22.6989C188.38 22.5276 188.209 22.4419 187.995 22.4419H168.571C168.357 22.4419 168.165 22.5276 167.994 22.6989C167.866 22.8274 167.801 22.9987 167.801 23.2128V34.263C167.801 34.4772 167.866 34.6699 167.994 34.8412C168.165 34.9697 168.357 35.034 168.571 35.034Z" fill="#393939"/>
<path d="M203.918 43.4501V10.5565C203.918 8.92898 204.324 7.45134 205.136 6.1236C205.948 4.79586 207.017 3.72511 208.342 2.91133C209.666 2.09756 211.141 1.69067 212.765 1.69067H226.804V10.1711H213.086C212.872 10.1711 212.679 10.2567 212.509 10.428C212.38 10.5565 212.316 10.7278 212.316 10.942V13.8973H226.804V22.3134H212.316V43.4501H203.918Z" fill="#393939"/>
<path d="M230.781 5.0498L235.673 0.158328L240.739 5.2245L235.847 10.116L230.781 5.0498Z" fill="#393939"/>
<path d="M97.6593 54.074V58.4004H96.9287V51.5982H98.1205L100.281 57.2115H100.317L102.494 51.5982H103.68V58.4004H102.888V54.0172C102.888 53.4934 102.91 52.9472 102.955 52.3787H102.913L100.582 58.4004H99.9444L97.6334 52.3735H97.5971C97.6386 52.849 97.6593 53.4159 97.6593 54.074Z" fill="#393939"/>
<path d="M106.147 52.3063C106.061 52.3925 105.951 52.4355 105.816 52.4355C105.681 52.4355 105.572 52.3925 105.489 52.3063C105.406 52.2167 105.365 52.0875 105.365 51.9186C105.365 51.7498 105.406 51.6223 105.489 51.5361C105.572 51.45 105.681 51.4069 105.816 51.4069C105.951 51.4069 106.061 51.4517 106.147 51.5413C106.234 51.6275 106.277 51.755 106.277 51.9238C106.277 52.0892 106.234 52.2167 106.147 52.3063ZM106.204 53.3039V58.4004H105.427V53.3039H106.204Z" fill="#393939"/>
<path d="M112.114 58.4004H111.337V55.1026C111.337 54.6822 111.242 54.3721 111.052 54.1723C110.862 53.9689 110.567 53.8673 110.166 53.8673C109.63 53.8673 109.238 54.012 108.99 54.3015C108.741 54.5875 108.617 55.063 108.617 55.7281V58.4004H107.839V53.3039H108.472L108.596 54.0017H108.632C108.791 53.7536 109.014 53.5606 109.301 53.4228C109.587 53.2815 109.907 53.2109 110.259 53.2109C110.881 53.2109 111.346 53.3607 111.653 53.6605C111.96 53.9603 112.114 54.4324 112.114 55.0768V58.4004Z" fill="#393939"/>
<path d="M114.425 52.3063C114.338 52.3925 114.228 52.4355 114.093 52.4355C113.958 52.4355 113.85 52.3925 113.767 52.3063C113.684 52.2167 113.642 52.0875 113.642 51.9186C113.642 51.7498 113.684 51.6223 113.767 51.5361C113.85 51.45 113.958 51.4069 114.093 51.4069C114.228 51.4069 114.338 51.4517 114.425 51.5413C114.511 51.6275 114.554 51.755 114.554 51.9238C114.554 52.0892 114.511 52.2167 114.425 52.3063ZM114.482 53.3039V58.4004H113.705V53.3039H114.482Z" fill="#393939"/>
<path d="M119.417 57.0099C119.417 57.4855 119.239 57.8525 118.884 58.1109C118.531 58.3659 118.025 58.4934 117.365 58.4934C116.706 58.4934 116.186 58.3866 115.806 58.1729V57.4545C116.338 57.7232 116.873 57.8576 117.412 57.8576C118.252 57.8576 118.671 57.5975 118.671 57.0771C118.671 56.8773 118.583 56.7067 118.407 56.5654C118.231 56.4207 117.903 56.2587 117.422 56.0796C116.942 55.8969 116.597 55.7384 116.386 55.604C115.989 55.3352 115.79 54.9889 115.79 54.5651C115.79 54.1412 115.96 53.8104 116.298 53.5727C116.637 53.3315 117.093 53.2109 117.666 53.2109C118.243 53.2109 118.79 53.3211 119.309 53.5417L119.034 54.1723C118.526 53.9621 118.075 53.857 117.682 53.857C117.291 53.857 117.001 53.9138 116.811 54.0275C116.625 54.1378 116.531 54.2963 116.531 54.5031C116.531 54.634 116.564 54.7494 116.63 54.8494C116.699 54.9459 116.811 55.0389 116.967 55.1285C117.122 55.2146 117.422 55.3387 117.868 55.5006C118.476 55.7246 118.885 55.9486 119.096 56.1726C119.31 56.3931 119.417 56.6722 119.417 57.0099Z" fill="#393939"/>
<path d="M121.505 56.9014C121.505 57.2081 121.576 57.4441 121.717 57.6095C121.863 57.7749 122.059 57.8576 122.308 57.8576C122.56 57.8576 122.799 57.8266 123.023 57.7646V58.3538C122.944 58.3917 122.818 58.4245 122.645 58.4521C122.476 58.4796 122.331 58.4934 122.21 58.4934C121.222 58.4934 120.728 57.9748 120.728 56.9376V53.9035H119.997V53.5313L120.728 53.2109L121.054 52.1202H121.505V53.3039H122.987V53.9035H121.505V56.9014Z" fill="#393939"/>
<path d="M126.375 53.2109C126.61 53.2109 126.814 53.2281 126.987 53.2625L126.883 53.981C126.679 53.9362 126.493 53.9138 126.324 53.9138C125.909 53.9138 125.555 54.0809 125.261 54.4152C124.968 54.7494 124.821 55.1664 124.821 55.666V58.4004H124.044V53.3039H124.686L124.774 54.2446H124.811C125.001 53.9104 125.229 53.6554 125.495 53.4796C125.764 53.3004 126.058 53.2109 126.375 53.2109Z" fill="#393939"/>
<path d="M127.891 60.6902C127.659 60.6902 127.426 60.6643 127.191 60.6126V59.9924C127.371 60.0303 127.562 60.0492 127.766 60.0492C128.298 60.0492 128.678 59.7512 128.906 59.155L129.191 58.4262L127.129 53.3039H127.958L129.077 56.2088C129.329 56.898 129.481 57.3769 129.533 57.6457H129.569C129.614 57.47 129.696 57.2064 129.813 56.8549C129.934 56.5034 130.361 55.3197 131.093 53.3039H131.922L129.725 59.1085C129.511 59.6771 129.259 60.082 128.968 60.3232C128.678 60.5678 128.319 60.6902 127.891 60.6902Z" fill="#393939"/>
<path d="M135.846 53.9035C136.267 53.4417 136.841 53.2109 137.566 53.2109C138.292 53.2109 138.865 53.4486 139.287 53.9242C139.708 54.3962 139.919 55.0423 139.919 55.8625C139.919 56.6791 139.708 57.3235 139.287 57.7956C138.865 58.2608 138.287 58.4934 137.551 58.4934C136.856 58.5003 136.292 58.2608 135.856 57.7749C135.421 57.2891 135.209 56.6464 135.219 55.847C135.219 55.0131 135.428 54.3652 135.846 53.9035ZM137.556 53.8673C136.533 53.8673 136.022 54.5272 136.022 55.847C136.022 56.4982 136.152 56.9944 136.411 57.3356C136.673 57.6767 137.058 57.8473 137.566 57.8473C138.074 57.8473 138.459 57.6784 138.722 57.3408C138.984 56.9996 139.116 56.5034 139.116 55.8521C139.116 55.1974 138.984 54.7029 138.722 54.3687C138.459 54.0344 138.071 53.8673 137.556 53.8673Z" fill="#393939"/>
<path d="M143.575 53.3039V53.9035H142.274V58.4004H141.497V53.9035H140.585V53.552L141.497 53.2729V52.9886C141.497 51.7377 142.046 51.1123 143.145 51.1123C143.418 51.1123 143.736 51.1657 144.098 51.2725L143.896 51.8928C143.606 51.7963 143.35 51.7481 143.129 51.7481C142.836 51.7481 142.62 51.8463 142.482 52.0427C142.343 52.2391 142.274 52.5492 142.274 52.9731V53.3039H143.575Z" fill="#393939"/>
<path d="M148.176 55.4955V58.4004H147.384V51.5982H151.182V52.3011H148.176V54.7925H151V55.4955H148.176Z" fill="#393939"/>
<path d="M152.909 52.3063C152.823 52.3925 152.712 52.4355 152.577 52.4355C152.443 52.4355 152.334 52.3925 152.251 52.3063C152.168 52.2167 152.127 52.0875 152.127 51.9186C152.127 51.7498 152.168 51.6223 152.251 51.5361C152.334 51.45 152.443 51.4069 152.577 51.4069C152.712 51.4069 152.823 51.4517 152.909 51.5413C152.995 51.6275 153.039 51.755 153.039 51.9238C153.039 52.0892 152.995 52.2167 152.909 52.3063ZM152.966 53.3039V58.4004H152.189V53.3039H152.966Z" fill="#393939"/>
<path d="M158.876 58.4004H158.099V55.1026C158.099 54.6822 158.004 54.3721 157.814 54.1723C157.624 53.9689 157.328 53.8673 156.928 53.8673C156.392 53.8673 156 54.012 155.751 54.3015C155.503 54.5875 155.378 55.063 155.378 55.7281V58.4004H154.601V53.3039H155.233L155.358 54.0017H155.394C155.553 53.7536 155.776 53.5606 156.062 53.4228C156.349 53.2815 156.668 53.2109 157.021 53.2109C157.643 53.2109 158.107 53.3607 158.415 53.6605C158.722 53.9603 158.876 54.4324 158.876 55.0768V58.4004Z" fill="#393939"/>
<path d="M160.896 56.9996C160.896 57.2753 160.981 57.4872 161.15 57.6354C161.319 57.7835 161.556 57.8576 161.86 57.8576C162.347 57.8576 162.727 57.7267 163 57.4648C163.273 57.1995 163.409 56.829 163.409 56.3535V55.8935L162.637 55.9245C162.022 55.9486 161.579 56.0451 161.306 56.2139C161.033 56.3828 160.896 56.6447 160.896 56.9996ZM164.187 58.4004H163.611L163.456 57.6767H163.42C163.164 57.9937 162.91 58.2091 162.658 58.3228C162.406 58.4365 162.09 58.4934 161.71 58.4934C161.199 58.4934 160.8 58.3625 160.513 58.1006C160.23 57.8387 160.088 57.4683 160.088 56.9893C160.088 55.9624 160.912 55.4231 162.56 55.3714L163.43 55.3456V55.0303C163.43 54.6237 163.344 54.3273 163.171 54.1412C162.998 53.9517 162.71 53.857 162.306 53.857C161.905 53.857 161.435 53.9862 160.896 54.2446L160.658 53.6554C161.197 53.3625 161.774 53.216 162.389 53.216C163.003 53.216 163.456 53.3521 163.746 53.6244C164.04 53.8966 164.187 54.329 164.187 54.9217V58.4004Z" fill="#393939"/>
<path d="M170.056 58.4004H169.279V55.1026C169.279 54.6822 169.184 54.3721 168.994 54.1723C168.804 53.9689 168.508 53.8673 168.107 53.8673C167.572 53.8673 167.18 54.012 166.931 54.3015C166.683 54.5875 166.558 55.063 166.558 55.7281V58.4004H165.781V53.3039H166.413L166.537 54.0017H166.574C166.733 53.7536 166.955 53.5606 167.242 53.4228C167.529 53.2815 167.848 53.2109 168.201 53.2109C168.823 53.2109 169.287 53.3607 169.595 53.6605C169.902 53.9603 170.056 54.4324 170.056 55.0768V58.4004Z" fill="#393939"/>
<path d="M173.693 58.4934C172.95 58.4934 172.375 58.266 171.967 57.8111C171.563 57.3563 171.361 56.7102 171.361 55.8728C171.361 55.032 171.567 54.3773 171.978 53.9086C172.392 53.4434 172.98 53.2109 173.74 53.2109C173.988 53.2109 174.235 53.2367 174.481 53.2884C174.726 53.3401 174.917 53.4021 175.056 53.4745L174.817 54.1309C174.434 53.9724 174.069 53.8931 173.724 53.8931C172.684 53.8931 172.164 54.553 172.164 55.8728C172.164 56.5034 172.292 56.9858 172.548 57.3201C172.803 57.6543 173.178 57.8215 173.672 57.8215C174.094 57.8215 174.531 57.7284 174.983 57.5423V58.2298C174.641 58.4055 174.211 58.4934 173.693 58.4934Z" fill="#393939"/>
<path d="M178.351 58.4934C177.594 58.4934 176.997 58.2643 176.558 57.8059C176.123 57.3476 175.905 56.7084 175.905 55.8883C175.905 55.0682 176.107 54.4169 176.512 53.9345C176.923 53.4521 177.458 53.2109 178.118 53.2109C178.781 53.2109 179.299 53.4211 179.672 53.8414C180.045 54.2618 180.232 54.8149 180.232 55.5006V55.9917H176.708C176.726 56.5878 176.878 57.0427 177.164 57.3563C177.451 57.6664 177.864 57.8215 178.403 57.8215C178.945 57.8215 179.481 57.706 180.009 57.4751V58.1626C179.743 58.2798 179.486 58.3642 179.237 58.4159C178.988 58.4676 178.693 58.4934 178.351 58.4934ZM179.403 55.3611C179.403 54.8752 179.294 54.5031 179.076 54.2446C178.859 53.9862 178.546 53.857 178.139 53.857C177.734 53.857 177.408 53.9896 177.159 54.255C176.914 54.5203 176.771 54.889 176.729 55.3611H179.403Z" fill="#393939"/>
<path d="M185.209 58.4004H184.417V51.5982H185.209V58.4004Z" fill="#393939"/>
<path d="M191.235 58.4004H190.457V55.1026C190.457 54.6822 190.362 54.3721 190.172 54.1723C189.982 53.9689 189.687 53.8673 189.286 53.8673C188.751 53.8673 188.359 54.012 188.11 54.3015C187.861 54.5875 187.737 55.063 187.737 55.7281V58.4004H186.96V53.3039H187.592L187.716 54.0017H187.753C187.912 53.7536 188.134 53.5606 188.421 53.4228C188.708 53.2815 189.027 53.2109 189.38 53.2109C190.001 53.2109 190.466 53.3607 190.773 53.6605C191.081 53.9603 191.235 54.4324 191.235 55.0768V58.4004Z" fill="#393939"/>
<path d="M194.872 58.4934C194.129 58.4934 193.554 58.266 193.146 57.8111C192.742 57.3563 192.54 56.7102 192.54 55.8728C192.54 55.032 192.746 54.3773 193.157 53.9086C193.571 53.4434 194.158 53.2109 194.918 53.2109C195.167 53.2109 195.414 53.2367 195.659 53.2884C195.905 53.3401 196.096 53.4021 196.235 53.4745L195.996 54.1309C195.613 53.9724 195.248 53.8931 194.903 53.8931C193.863 53.8931 193.343 54.553 193.343 55.8728C193.343 56.5034 193.471 56.9858 193.727 57.3201C193.982 57.6543 194.357 57.8215 194.851 57.8215C195.272 57.8215 195.709 57.7284 196.162 57.5423V58.2298C195.82 58.4055 195.39 58.4934 194.872 58.4934Z" fill="#393939"/>
<path d="M197.711 53.9035C198.133 53.4417 198.706 53.2109 199.431 53.2109C200.157 53.2109 200.73 53.4486 201.152 53.9242C201.573 54.3962 201.784 55.0423 201.784 55.8625C201.784 56.6791 201.573 57.3235 201.152 57.7956C200.73 58.2608 200.152 58.4934 199.416 58.4934C198.722 58.5003 198.157 58.2608 197.721 57.7749C197.286 57.2891 197.074 56.6464 197.084 55.847C197.084 55.0131 197.293 54.3652 197.711 53.9035ZM199.421 53.8673C198.399 53.8673 197.887 54.5272 197.887 55.847C197.887 56.4982 198.017 56.9944 198.276 57.3356C198.538 57.6767 198.924 57.8473 199.431 57.8473C199.939 57.8473 200.324 57.6784 200.587 57.3408C200.849 56.9996 200.981 56.5034 200.981 55.8521C200.981 55.1974 200.849 54.7029 200.587 54.3687C200.324 54.0344 199.936 53.8673 199.421 53.8673Z" fill="#393939"/>
<path d="M205.466 53.2109C205.701 53.2109 205.905 53.2281 206.077 53.2625L205.974 53.981C205.77 53.9362 205.583 53.9138 205.414 53.9138C205 53.9138 204.646 54.0809 204.352 54.4152C204.058 54.7494 203.911 55.1664 203.911 55.666V58.4004H203.134V53.3039H203.777L203.865 54.2446H203.901C204.091 53.9104 204.319 53.6554 204.585 53.4796C204.855 53.3004 205.148 53.2109 205.466 53.2109Z" fill="#393939"/>
<path d="M210.349 57.3149C210.601 56.96 210.727 56.4672 210.727 55.8366C210.727 55.206 210.603 54.7202 210.354 54.379C210.106 54.0379 209.753 53.8673 209.297 53.8673C208.779 53.8673 208.403 54.0103 208.168 54.2963C207.933 54.5823 207.812 55.0423 207.805 55.6764V55.847C207.805 56.5637 207.924 57.0771 208.162 57.3873C208.401 57.694 208.784 57.8473 209.313 57.8473C209.755 57.8473 210.1 57.6698 210.349 57.3149ZM210.976 53.9035C211.346 54.3652 211.53 55.0148 211.53 55.8521C211.53 56.6895 211.342 57.339 210.966 57.8008C210.593 58.2625 210.062 58.4934 209.375 58.4934C208.691 58.4934 208.168 58.2436 207.805 57.7439H207.748C207.786 58.0575 207.805 58.3401 207.805 58.5916V60.6902H207.028V53.3039H207.66L207.769 54.0017H207.805C208.178 53.4745 208.707 53.2109 209.391 53.2109C210.078 53.2109 210.606 53.4417 210.976 53.9035Z" fill="#393939"/>
<path d="M213.215 53.9035C213.636 53.4417 214.21 53.2109 214.935 53.2109C215.661 53.2109 216.234 53.4486 216.655 53.9242C217.077 54.3962 217.288 55.0423 217.288 55.8625C217.288 56.6791 217.077 57.3235 216.655 57.7956C216.234 58.2608 215.655 58.4934 214.92 58.4934C214.225 58.5003 213.661 58.2608 213.225 57.7749C212.79 57.2891 212.578 56.6464 212.588 55.847C212.588 55.0131 212.797 54.3652 213.215 53.9035ZM214.925 53.8673C213.902 53.8673 213.391 54.5272 213.391 55.847C213.391 56.4982 213.521 56.9944 213.78 57.3356C214.042 57.6767 214.427 57.8473 214.935 57.8473C215.443 57.8473 215.828 57.6784 216.091 57.3408C216.353 56.9996 216.484 56.5034 216.484 55.8521C216.484 55.1974 216.353 54.7029 216.091 54.3687C215.828 54.0344 215.44 53.8673 214.925 53.8673Z" fill="#393939"/>
<path d="M220.97 53.2109C221.205 53.2109 221.408 53.2281 221.581 53.2625L221.478 53.981C221.274 53.9362 221.087 53.9138 220.918 53.9138C220.503 53.9138 220.149 54.0809 219.856 54.4152C219.562 54.7494 219.415 55.1664 219.415 55.666V58.4004H218.638V53.3039H219.281L219.369 54.2446H219.405C219.595 53.9104 219.823 53.6554 220.089 53.4796C220.358 53.3004 220.652 53.2109 220.97 53.2109Z" fill="#393939"/>
<path d="M222.771 56.9996C222.771 57.2753 222.856 57.4872 223.025 57.6354C223.195 57.7835 223.431 57.8576 223.735 57.8576C224.222 57.8576 224.602 57.7267 224.875 57.4648C225.148 57.1995 225.284 56.829 225.284 56.3535V55.8935L224.512 55.9245C223.898 55.9486 223.454 56.0451 223.181 56.2139C222.908 56.3828 222.771 56.6447 222.771 56.9996ZM226.062 58.4004H225.487L225.331 57.6767H225.295C225.039 57.9937 224.785 58.2091 224.533 58.3228C224.281 58.4365 223.965 58.4934 223.585 58.4934C223.074 58.4934 222.675 58.3625 222.388 58.1006C222.105 57.8387 221.963 57.4683 221.963 56.9893C221.963 55.9624 222.787 55.4231 224.435 55.3714L225.305 55.3456V55.0303C225.305 54.6237 225.219 54.3273 225.046 54.1412C224.873 53.9517 224.585 53.857 224.181 53.857C223.78 53.857 223.31 53.9862 222.771 54.2446L222.533 53.6554C223.072 53.3625 223.649 53.216 224.264 53.216C224.879 53.216 225.331 53.3521 225.621 53.6244C225.915 53.8966 226.062 54.329 226.062 54.9217V58.4004Z" fill="#393939"/>
<path d="M228.49 56.9014C228.49 57.2081 228.561 57.4441 228.703 57.6095C228.848 57.7749 229.045 57.8576 229.293 57.8576C229.546 57.8576 229.784 57.8266 230.009 57.7646V58.3538C229.929 58.3917 229.803 58.4245 229.63 58.4521C229.461 58.4796 229.316 58.4934 229.195 58.4934C228.207 58.4934 227.713 57.9748 227.713 56.9376V53.9035H226.982V53.5313L227.713 53.2109L228.04 52.1202H228.49V53.3039H229.972V53.9035H228.49V56.9014Z" fill="#393939"/>
<path d="M233.19 58.4934C232.433 58.4934 231.836 58.2643 231.397 57.8059C230.962 57.3476 230.744 56.7084 230.744 55.8883C230.744 55.0682 230.946 54.4169 231.35 53.9345C231.761 53.4521 232.297 53.2109 232.957 53.2109C233.62 53.2109 234.138 53.4211 234.511 53.8414C234.884 54.2618 235.071 54.8149 235.071 55.5006V55.9917H231.547C231.565 56.5878 231.717 57.0427 232.003 57.3563C232.29 57.6664 232.703 57.8215 233.242 57.8215C233.784 57.8215 234.319 57.706 234.848 57.4751V58.1626C234.582 58.2798 234.325 58.3642 234.076 58.4159C233.827 58.4676 233.532 58.4934 233.19 58.4934ZM234.242 55.3611C234.242 54.8752 234.133 54.5031 233.915 54.2446C233.698 53.9862 233.385 53.857 232.977 53.857C232.573 53.857 232.247 53.9896 231.998 54.255C231.753 54.5203 231.609 54.889 231.568 55.3611H234.242Z" fill="#393939"/>
<path d="M237.265 54.3842C237.023 54.7322 236.902 55.2301 236.902 55.878C236.902 56.5258 237.021 57.0168 237.26 57.3511C237.501 57.6819 237.854 57.8473 238.317 57.8473C238.845 57.8473 239.229 57.7043 239.467 57.4183C239.705 57.1288 239.824 56.6654 239.824 56.0279V55.8676C239.824 55.1406 239.704 54.6237 239.462 54.317C239.22 54.0103 238.835 53.857 238.306 53.857C237.854 53.857 237.507 54.0327 237.265 54.3842ZM239.824 57.7181C239.465 58.235 238.94 58.4934 238.249 58.4934C237.562 58.4934 237.032 58.266 236.658 57.8111C236.285 57.3494 236.099 56.6998 236.099 55.8625C236.099 55.0251 236.285 54.3738 236.658 53.9086C237.032 53.4434 237.558 53.2109 238.239 53.2109C238.923 53.2109 239.448 53.4607 239.814 53.9603H239.876L239.84 53.5933L239.824 53.2367V51.164H240.596V58.4004H239.97L239.866 57.7181H239.824Z" fill="#393939"/>
</svg>
