<svg width="625" height="158" viewBox="0 0 625 158" fill="none" xmlns="http://www.w3.org/2000/svg">
<path d="M183.344 0H201.91L81.2285 155.162H62.6621L183.344 0Z" fill="white" fill-opacity="0.8"/>
<path d="M153.37 0H172.069L50.5252 155.162H31.8262L153.37 0Z" fill="white" fill-opacity="0.7"/>
<path d="M123.268 0H142.232L18.9643 155.162H0L123.268 0Z" fill="white" fill-opacity="0.6"/>
<path d="M213.846 0L213.846 157.151H89.5176L213.846 0Z" fill="white"/>
<path d="M600.758 112.393V35.8066H622.64V112.393H600.758Z" fill="white"/>
<path d="M251.643 112.393V32.0213C251.643 16.5336 264.171 3.97839 279.625 3.97839H371.308C375.635 3.97839 379.518 5.03474 382.958 7.14744C386.398 9.26013 389.116 12.04 391.113 15.487C393.221 18.9341 394.275 22.7703 394.275 26.9957V112.393H372.639V27.8296C372.639 27.2736 372.417 26.8289 371.973 26.4953C371.53 26.0505 371.03 25.8281 370.475 25.8281H336.024C335.469 25.8281 334.97 26.0505 334.526 26.4953C334.193 26.8289 334.027 27.2736 334.027 27.8296V112.393H312.058V27.8296C312.058 27.2736 311.836 26.8289 311.392 26.4953C311.059 26.0505 310.615 25.8281 310.06 25.8281H275.442C274.888 25.8281 274.388 26.0505 273.945 26.4953C273.612 26.8289 273.445 27.2736 273.445 27.8296V112.393H251.643Z" fill="white"/>
<path d="M436.805 112.393C432.589 112.393 428.761 111.337 425.322 109.224C421.882 107.111 419.108 104.331 417 100.884C414.892 97.4374 413.838 93.6012 413.838 89.3758V59.0197C413.838 54.7943 414.892 50.9581 417 47.511C419.108 44.064 421.882 41.2841 425.322 39.1714C428.761 37.0588 432.589 36.0024 436.805 36.0024H488.899C493.115 36.0024 496.943 37.0588 500.383 39.1714C503.933 41.2841 506.707 44.064 508.704 47.511C510.812 50.9581 511.866 54.7943 511.866 59.0197V89.3758C511.866 93.6012 510.812 97.4374 508.704 100.884C506.707 104.331 503.989 107.111 500.549 109.224C497.109 111.337 493.226 112.393 488.899 112.393H436.805ZM437.638 90.5433H488.067C488.621 90.5433 489.065 90.3765 489.398 90.0429C489.842 89.5982 490.064 89.0978 490.064 88.5418V59.8536C490.064 59.2977 489.842 58.8529 489.398 58.5193C489.065 58.0745 488.621 57.8521 488.067 57.8521H437.638C437.083 57.8521 436.583 58.0745 436.14 58.5193C435.807 58.8529 435.64 59.2977 435.64 59.8536V88.5418C435.64 89.0978 435.807 89.5982 436.14 90.0429C436.583 90.3765 437.083 90.5433 437.638 90.5433Z" fill="white"/>
<path d="M529.406 112.393V26.9957C529.406 22.7703 530.46 18.9341 532.568 15.487C534.676 12.04 537.45 9.26013 540.889 7.14743C544.329 5.03474 548.157 3.97839 552.373 3.97839H588.822V25.9949H553.205C552.651 25.9949 552.151 26.2173 551.708 26.6621C551.375 26.9957 551.208 27.4404 551.208 27.9964V35.6688H588.822V57.5185H551.208V112.393H529.406Z" fill="white"/>
<path d="M599.146 12.6993L611.846 0.000231236L624.998 13.1529L612.299 25.852L599.146 12.6993Z" fill="white"/>
<path d="M253.539 139.975V151.207H251.643V133.547H254.737L260.346 148.12H260.44L266.09 133.547H269.171V151.207H267.113V139.827C267.113 138.468 267.171 137.05 267.288 135.573H267.18L261.126 151.207H259.472L253.472 135.56H253.378C253.486 136.795 253.539 138.266 253.539 139.975Z" fill="white"/>
<path d="M275.576 135.386C275.352 135.609 275.065 135.721 274.715 135.721C274.365 135.721 274.083 135.609 273.868 135.386C273.652 135.153 273.545 134.818 273.545 134.379C273.545 133.941 273.652 133.61 273.868 133.386C274.083 133.162 274.365 133.051 274.715 133.051C275.065 133.051 275.352 133.167 275.576 133.4C275.8 133.623 275.912 133.954 275.912 134.393C275.912 134.822 275.8 135.153 275.576 135.386ZM275.724 137.975V151.207H273.706V137.975H275.724Z" fill="white"/>
<path d="M291.067 151.207H289.049V142.645C289.049 141.554 288.802 140.749 288.309 140.23C287.816 139.702 287.049 139.438 286.009 139.438C284.618 139.438 283.601 139.814 282.955 140.565C282.309 141.308 281.986 142.542 281.986 144.269V151.207H279.968V137.975H281.61L281.933 139.787H282.027C282.439 139.143 283.018 138.642 283.762 138.284C284.506 137.917 285.336 137.734 286.251 137.734C287.865 137.734 289.071 138.123 289.869 138.901C290.667 139.68 291.067 140.905 291.067 142.578V151.207Z" fill="white"/>
<path d="M297.065 135.386C296.841 135.609 296.554 135.721 296.205 135.721C295.855 135.721 295.572 135.609 295.357 135.386C295.142 135.153 295.034 134.818 295.034 134.379C295.034 133.941 295.142 133.61 295.357 133.386C295.572 133.162 295.855 133.051 296.205 133.051C296.554 133.051 296.841 133.167 297.065 133.4C297.29 133.623 297.402 133.954 297.402 134.393C297.402 134.822 297.29 135.153 297.065 135.386ZM297.213 137.975V151.207H295.196V137.975H297.213Z" fill="white"/>
<path d="M310.027 147.597C310.027 148.832 309.565 149.784 308.641 150.455C307.727 151.117 306.413 151.448 304.7 151.448C302.987 151.448 301.637 151.171 300.651 150.616V148.751C302.032 149.449 303.422 149.798 304.821 149.798C307 149.798 308.09 149.122 308.09 147.771C308.09 147.253 307.861 146.81 307.404 146.443C306.946 146.067 306.095 145.647 304.848 145.182C303.601 144.707 302.705 144.296 302.157 143.947C301.126 143.249 300.61 142.35 300.61 141.25C300.61 140.149 301.05 139.291 301.929 138.673C302.808 138.047 303.991 137.734 305.48 137.734C306.978 137.734 308.399 138.02 309.745 138.593L309.032 140.23C307.713 139.684 306.543 139.411 305.521 139.411C304.507 139.411 303.754 139.559 303.261 139.854C302.776 140.14 302.534 140.552 302.534 141.089C302.534 141.429 302.619 141.728 302.79 141.988C302.969 142.238 303.261 142.48 303.664 142.712C304.068 142.936 304.848 143.258 306.005 143.679C307.583 144.26 308.646 144.842 309.193 145.423C309.749 145.996 310.027 146.72 310.027 147.597Z" fill="white"/>
<path d="M315.447 147.315C315.447 148.111 315.631 148.724 315.998 149.154C316.375 149.583 316.886 149.798 317.532 149.798C318.187 149.798 318.805 149.717 319.388 149.556V151.086C319.182 151.184 318.855 151.269 318.406 151.341C317.967 151.413 317.59 151.448 317.276 151.448C314.712 151.448 313.429 150.102 313.429 147.409V139.532H311.532V138.566L313.429 137.734L314.277 134.903H315.447V137.975H319.294V139.532H315.447V147.315Z" fill="white"/>
<path d="M328.091 137.734C328.701 137.734 329.23 137.779 329.679 137.868L329.41 139.733C328.881 139.617 328.396 139.559 327.957 139.559C326.881 139.559 325.962 139.993 325.199 140.861C324.437 141.728 324.056 142.811 324.056 144.108V151.207H322.038V137.975H323.706L323.935 140.418H324.029C324.522 139.55 325.114 138.888 325.805 138.432C326.504 137.967 327.266 137.734 328.091 137.734Z" fill="white"/>
<path d="M332.025 157.152C331.424 157.152 330.819 157.084 330.209 156.95V155.34C330.675 155.438 331.173 155.488 331.702 155.488C333.083 155.488 334.07 154.714 334.662 153.166L335.402 151.274L330.048 137.975H332.2L335.106 145.517C335.76 147.306 336.155 148.55 336.289 149.248H336.384C336.5 148.791 336.711 148.107 337.016 147.194C337.33 146.282 338.437 143.209 340.338 137.975H342.491L336.787 153.045C336.231 154.521 335.576 155.573 334.823 156.199C334.07 156.834 333.137 157.152 332.025 157.152Z" fill="white"/>
<path d="M352.678 139.532C353.773 138.333 355.261 137.734 357.145 137.734C359.028 137.734 360.517 138.351 361.611 139.586C362.705 140.811 363.252 142.489 363.252 144.618C363.252 146.738 362.705 148.411 361.611 149.637C360.517 150.844 359.014 151.448 357.104 151.448C355.302 151.466 353.835 150.844 352.705 149.583C351.575 148.322 351.024 146.653 351.051 144.578C351.051 142.413 351.593 140.731 352.678 139.532ZM357.118 139.438C354.463 139.438 353.136 141.151 353.136 144.578C353.136 146.269 353.472 147.557 354.145 148.442C354.826 149.328 355.826 149.771 357.145 149.771C358.463 149.771 359.463 149.333 360.144 148.456C360.826 147.57 361.167 146.282 361.167 144.591C361.167 142.891 360.826 141.608 360.144 140.74C359.463 139.872 358.454 139.438 357.118 139.438Z" fill="white"/>
<path d="M372.744 137.975V139.532H369.368V151.207H367.35V139.532H364.982V138.62L367.35 137.895V137.157C367.35 133.909 368.776 132.286 371.628 132.286C372.336 132.286 373.161 132.424 374.103 132.702L373.578 134.312C372.825 134.062 372.161 133.936 371.587 133.936C370.825 133.936 370.264 134.191 369.906 134.701C369.547 135.211 369.368 136.016 369.368 137.117V137.975H372.744Z" fill="white"/>
<path d="M384.69 143.665V151.207H382.632V133.547H392.493V135.372H384.69V141.84H392.022V143.665H384.69Z" fill="white"/>
<path d="M396.977 135.386C396.753 135.609 396.466 135.721 396.116 135.721C395.767 135.721 395.484 135.609 395.269 135.386C395.054 135.153 394.946 134.818 394.946 134.379C394.946 133.941 395.054 133.61 395.269 133.386C395.484 133.162 395.767 133.051 396.116 133.051C396.466 133.051 396.753 133.167 396.977 133.4C397.201 133.623 397.314 133.954 397.314 134.393C397.314 134.822 397.201 135.153 396.977 135.386ZM397.125 137.975V151.207H395.107V137.975H397.125Z" fill="white"/>
<path d="M412.468 151.207H410.45V142.645C410.45 141.554 410.203 140.749 409.71 140.23C409.217 139.702 408.45 139.438 407.41 139.438C406.02 139.438 405.002 139.814 404.356 140.565C403.71 141.308 403.388 142.542 403.388 144.269V151.207H401.37V137.975H403.011L403.334 139.787H403.428C403.84 139.143 404.419 138.642 405.163 138.284C405.908 137.917 406.737 137.734 407.652 137.734C409.266 137.734 410.472 138.123 411.271 138.901C412.069 139.68 412.468 140.905 412.468 142.578V151.207Z" fill="white"/>
<path d="M417.713 147.57C417.713 148.286 417.933 148.836 418.373 149.221C418.812 149.605 419.426 149.798 420.216 149.798C421.48 149.798 422.467 149.458 423.175 148.778C423.883 148.089 424.238 147.127 424.238 145.893V144.699L422.233 144.779C420.637 144.842 419.485 145.092 418.776 145.53C418.068 145.969 417.713 146.649 417.713 147.57ZM426.256 151.207H424.762L424.359 149.328H424.265C423.601 150.151 422.942 150.71 422.287 151.006C421.633 151.301 420.812 151.448 419.825 151.448C418.498 151.448 417.462 151.108 416.718 150.429C415.983 149.749 415.615 148.787 415.615 147.543C415.615 144.877 417.754 143.477 422.032 143.343L424.292 143.276V142.458C424.292 141.402 424.067 140.632 423.619 140.149C423.171 139.657 422.422 139.411 421.372 139.411C420.332 139.411 419.112 139.747 417.713 140.418L417.095 138.888C418.494 138.128 419.991 137.747 421.588 137.747C423.184 137.747 424.359 138.101 425.112 138.807C425.874 139.514 426.256 140.637 426.256 142.176V151.207Z" fill="white"/>
<path d="M441.493 151.207H439.475V142.645C439.475 141.554 439.228 140.749 438.735 140.23C438.242 139.702 437.475 139.438 436.435 139.438C435.045 139.438 434.027 139.814 433.381 140.565C432.736 141.308 432.413 142.542 432.413 144.269V151.207H430.395V137.975H432.036L432.359 139.787H432.453C432.866 139.143 433.444 138.642 434.188 138.284C434.933 137.917 435.762 137.734 436.677 137.734C438.291 137.734 439.497 138.123 440.296 138.901C441.094 139.68 441.493 140.905 441.493 142.578V151.207Z" fill="white"/>
<path d="M450.936 151.448C449.007 151.448 447.514 150.858 446.456 149.677C445.407 148.496 444.882 146.819 444.882 144.645C444.882 142.462 445.416 140.762 446.483 139.546C447.559 138.338 449.084 137.734 451.057 137.734C451.702 137.734 452.344 137.801 452.98 137.935C453.617 138.069 454.115 138.23 454.474 138.418L453.855 140.123C452.859 139.711 451.913 139.505 451.016 139.505C448.317 139.505 446.967 141.218 446.967 144.645C446.967 146.282 447.299 147.534 447.963 148.402C448.626 149.27 449.599 149.704 450.882 149.704C451.976 149.704 453.11 149.462 454.285 148.979V150.764C453.397 151.22 452.281 151.448 450.936 151.448Z" fill="white"/>
<path d="M463.029 151.448C461.065 151.448 459.513 150.853 458.374 149.664C457.244 148.474 456.679 146.814 456.679 144.685C456.679 142.556 457.204 140.865 458.253 139.613C459.32 138.36 460.71 137.734 462.423 137.734C464.145 137.734 465.49 138.28 466.459 139.371C467.428 140.463 467.912 141.898 467.912 143.679V144.953H458.764C458.809 146.501 459.204 147.682 459.948 148.496C460.692 149.301 461.764 149.704 463.163 149.704C464.571 149.704 465.961 149.404 467.333 148.805V150.59C466.643 150.894 465.975 151.113 465.329 151.247C464.683 151.381 463.917 151.448 463.029 151.448ZM465.759 143.316C465.759 142.055 465.477 141.089 464.912 140.418C464.347 139.747 463.535 139.411 462.477 139.411C461.428 139.411 460.58 139.756 459.935 140.445C459.298 141.133 458.926 142.091 458.818 143.316H465.759Z" fill="white"/>
<path d="M480.834 151.207H478.776V133.547H480.834V151.207Z" fill="white"/>
<path d="M496.477 151.207H494.459V142.645C494.459 141.554 494.212 140.749 493.719 140.23C493.226 139.702 492.459 139.438 491.419 139.438C490.029 139.438 489.011 139.814 488.365 140.565C487.719 141.308 487.397 142.542 487.397 144.269V151.207H485.379V137.975H487.02L487.343 139.787H487.437C487.85 139.143 488.428 138.642 489.172 138.284C489.917 137.917 490.746 137.734 491.661 137.734C493.275 137.734 494.481 138.123 495.28 138.901C496.078 139.68 496.477 140.905 496.477 142.578V151.207Z" fill="white"/>
<path d="M505.92 151.448C503.991 151.448 502.498 150.858 501.44 149.677C500.391 148.496 499.866 146.819 499.866 144.645C499.866 142.462 500.4 140.762 501.467 139.546C502.543 138.338 504.068 137.734 506.041 137.734C506.686 137.734 507.328 137.801 507.964 137.935C508.601 138.069 509.099 138.23 509.457 138.418L508.839 140.123C507.843 139.711 506.897 139.505 506 139.505C503.301 139.505 501.951 141.218 501.951 144.645C501.951 146.282 502.283 147.534 502.947 148.402C503.61 149.27 504.583 149.704 505.866 149.704C506.96 149.704 508.094 149.462 509.269 148.979V150.764C508.381 151.22 507.265 151.448 505.92 151.448Z" fill="white"/>
<path d="M513.291 139.532C514.385 138.333 515.874 137.734 517.757 137.734C519.64 137.734 521.129 138.351 522.223 139.586C523.317 140.811 523.864 142.489 523.864 144.618C523.864 146.738 523.317 148.411 522.223 149.637C521.129 150.844 519.627 151.448 517.717 151.448C515.914 151.466 514.448 150.844 513.318 149.583C512.188 148.322 511.636 146.653 511.663 144.578C511.663 142.413 512.206 140.731 513.291 139.532ZM517.73 139.438C515.076 139.438 513.748 141.151 513.748 144.578C513.748 146.269 514.085 147.557 514.757 148.442C515.439 149.328 516.439 149.771 517.757 149.771C519.075 149.771 520.075 149.333 520.757 148.456C521.438 147.57 521.779 146.282 521.779 144.591C521.779 142.891 521.438 141.608 520.757 140.74C520.075 139.872 519.066 139.438 517.73 139.438Z" fill="white"/>
<path d="M533.424 137.734C534.034 137.734 534.563 137.779 535.011 137.868L534.742 139.733C534.213 139.617 533.729 139.559 533.289 139.559C532.213 139.559 531.294 139.993 530.532 140.861C529.769 141.728 529.388 142.811 529.388 144.108V151.207H527.37V137.975H529.038L529.267 140.418H529.361C529.855 139.55 530.446 138.888 531.137 138.432C531.836 137.967 532.599 137.734 533.424 137.734Z" fill="white"/>
<path d="M546.101 148.389C546.756 147.467 547.083 146.188 547.083 144.551C547.083 142.914 546.76 141.652 546.115 140.767C545.469 139.881 544.554 139.438 543.371 139.438C542.025 139.438 541.048 139.809 540.438 140.552C539.828 141.295 539.514 142.489 539.496 144.135V144.578C539.496 146.439 539.806 147.772 540.424 148.577C541.043 149.373 542.039 149.771 543.411 149.771C544.559 149.771 545.456 149.31 546.101 148.389ZM547.729 139.532C548.689 140.731 549.168 142.417 549.168 144.591C549.168 146.765 548.68 148.451 547.702 149.65C546.734 150.849 545.357 151.448 543.572 151.448C541.797 151.448 540.438 150.8 539.496 149.503H539.348C539.447 150.317 539.496 151.05 539.496 151.703V157.152H537.478V137.975H539.12L539.402 139.787H539.496C540.465 138.418 541.837 137.734 543.613 137.734C545.397 137.734 546.769 138.333 547.729 139.532Z" fill="white"/>
<path d="M553.541 139.532C554.636 138.333 556.124 137.734 558.008 137.734C559.891 137.734 561.38 138.351 562.474 139.586C563.568 140.811 564.115 142.489 564.115 144.618C564.115 146.738 563.568 148.411 562.474 149.637C561.38 150.844 559.877 151.448 557.967 151.448C556.165 151.466 554.698 150.844 553.568 149.583C552.438 148.322 551.887 146.653 551.914 144.578C551.914 142.413 552.456 140.731 553.541 139.532ZM557.981 139.438C555.326 139.438 553.999 141.151 553.999 144.578C553.999 146.269 554.335 147.557 555.008 148.442C555.689 149.328 556.689 149.771 558.008 149.771C559.326 149.771 560.326 149.333 561.007 148.456C561.689 147.57 562.03 146.282 562.03 144.591C562.03 142.891 561.689 141.608 561.007 140.74C560.326 139.872 559.317 139.438 557.981 139.438Z" fill="white"/>
<path d="M573.674 137.734C574.284 137.734 574.813 137.779 575.262 137.868L574.993 139.733C574.464 139.617 573.979 139.559 573.54 139.559C572.464 139.559 571.544 139.993 570.782 140.861C570.02 141.728 569.639 142.811 569.639 144.108V151.207H567.621V137.975H569.289L569.518 140.418H569.612C570.105 139.55 570.697 138.888 571.387 138.432C572.087 137.967 572.849 137.734 573.674 137.734Z" fill="white"/>
<path d="M578.352 147.57C578.352 148.286 578.572 148.836 579.011 149.221C579.45 149.605 580.065 149.798 580.854 149.798C582.118 149.798 583.105 149.458 583.813 148.778C584.522 148.089 584.876 147.127 584.876 145.893V144.699L582.872 144.779C581.275 144.842 580.123 145.092 579.415 145.53C578.706 145.969 578.352 146.649 578.352 147.57ZM586.894 151.207H585.401L584.997 149.328H584.903C584.239 150.151 583.58 150.71 582.926 151.006C582.271 151.301 581.45 151.448 580.464 151.448C579.137 151.448 578.101 151.108 577.356 150.429C576.621 149.749 576.253 148.787 576.253 147.543C576.253 144.877 578.392 143.477 582.67 143.343L584.93 143.276V142.458C584.93 141.402 584.706 140.632 584.257 140.149C583.809 139.657 583.06 139.411 582.011 139.411C580.97 139.411 579.751 139.747 578.352 140.418L577.733 138.888C579.132 138.128 580.63 137.747 582.226 137.747C583.822 137.747 584.997 138.101 585.751 138.807C586.513 139.514 586.894 140.637 586.894 142.176V151.207Z" fill="white"/>
<path d="M593.199 147.315C593.199 148.111 593.383 148.724 593.751 149.154C594.127 149.583 594.638 149.798 595.284 149.798C595.939 149.798 596.558 149.717 597.141 149.556V151.086C596.934 151.184 596.607 151.269 596.159 151.341C595.719 151.413 595.342 151.448 595.029 151.448C592.464 151.448 591.181 150.102 591.181 147.409V139.532H589.284V138.566L591.181 137.734L592.029 134.903H593.199V137.975H597.046V139.532H593.199V147.315Z" fill="white"/>
<path d="M605.4 151.448C603.436 151.448 601.884 150.853 600.745 149.664C599.615 148.474 599.05 146.814 599.05 144.685C599.05 142.556 599.575 140.865 600.624 139.613C601.691 138.36 603.081 137.734 604.794 137.734C606.516 137.734 607.861 138.28 608.83 139.371C609.799 140.463 610.283 141.898 610.283 143.679V144.953H601.135C601.18 146.501 601.575 147.682 602.319 148.496C603.064 149.301 604.135 149.704 605.534 149.704C606.942 149.704 608.332 149.404 609.704 148.805V150.59C609.014 150.894 608.346 151.113 607.7 151.247C607.054 151.381 606.288 151.448 605.4 151.448ZM608.13 143.316C608.13 142.055 607.848 141.089 607.283 140.418C606.718 139.747 605.906 139.411 604.848 139.411C603.799 139.411 602.951 139.756 602.306 140.445C601.669 141.133 601.297 142.091 601.189 143.316H608.13Z" fill="white"/>
<path d="M615.979 140.78C615.351 141.684 615.037 142.976 615.037 144.658C615.037 146.34 615.347 147.615 615.965 148.483C616.593 149.342 617.508 149.771 618.71 149.771C620.082 149.771 621.077 149.4 621.696 148.657C622.315 147.906 622.624 146.702 622.624 145.047V144.631C622.624 142.744 622.31 141.402 621.683 140.606C621.055 139.809 620.055 139.411 618.683 139.411C617.508 139.411 616.607 139.868 615.979 140.78ZM622.624 149.435C621.692 150.777 620.328 151.448 618.535 151.448C616.75 151.448 615.374 150.858 614.405 149.677C613.436 148.478 612.952 146.792 612.952 144.618C612.952 142.444 613.436 140.753 614.405 139.546C615.374 138.338 616.741 137.734 618.508 137.734C620.284 137.734 621.647 138.383 622.597 139.68H622.759L622.665 138.727L622.624 137.801V132.42H624.629V151.207H623.001L622.732 149.435H622.624Z" fill="white"/>
</svg>
