<svg width="66" height="66" viewBox="0 0 66 66" fill="none" xmlns="http://www.w3.org/2000/svg">
<circle cx="33" cy="33" r="33" fill="white" fill-opacity="0.1"/>
<path d="M24.5334 30.3667L27.1334 31.4667C27.4445 30.8444 27.7667 30.2444 28.1001 29.6667C28.4334 29.0889 28.8001 28.5111 29.2001 27.9333L27.3334 27.5667L24.5334 30.3667ZM29.2667 33.1333L33.0667 36.9C34.0001 36.5444 35.0001 36 36.0667 35.2667C37.1334 34.5333 38.1334 33.7 39.0667 32.7667C40.6223 31.2111 41.8392 29.4835 42.7174 27.584C43.5947 25.6835 43.9778 23.9333 43.8667 22.3333C42.2667 22.2222 40.5112 22.6053 38.6001 23.4827C36.689 24.3609 34.9556 25.5778 33.4001 27.1333C32.4667 28.0667 31.6334 29.0667 30.9001 30.1333C30.1667 31.2 29.6223 32.2 29.2667 33.1333ZM35.2001 30.9667C34.689 30.4555 34.4334 29.8275 34.4334 29.0827C34.4334 28.3387 34.689 27.7111 35.2001 27.2C35.7112 26.6889 36.3445 26.4333 37.1001 26.4333C37.8556 26.4333 38.489 26.6889 39.0001 27.2C39.5112 27.7111 39.7667 28.3387 39.7667 29.0827C39.7667 29.8275 39.5112 30.4555 39.0001 30.9667C38.489 31.4778 37.8556 31.7333 37.1001 31.7333C36.3445 31.7333 35.7112 31.4778 35.2001 30.9667ZM35.8334 41.6667L38.6334 38.8667L38.2667 37C37.689 37.4 37.1112 37.7609 36.5334 38.0827C35.9556 38.4053 35.3556 38.7222 34.7334 39.0333L35.8334 41.6667ZM46.2667 19.9C46.689 22.5889 46.4281 25.2053 45.4841 27.7493C44.5392 30.2942 42.9112 32.7222 40.6001 35.0333L41.2667 38.3333C41.3556 38.7778 41.3334 39.2111 41.2001 39.6333C41.0667 40.0555 40.8445 40.4222 40.5334 40.7333L34.9334 46.3333L32.1334 39.7667L26.4334 34.0667L19.8667 31.2667L25.4334 25.6667C25.7445 25.3555 26.117 25.1333 26.5507 25C26.9836 24.8667 27.4223 24.8444 27.8667 24.9333L31.1667 25.6C33.4778 23.2889 35.9001 21.6555 38.4334 20.7C40.9667 19.7444 43.5778 19.4778 46.2667 19.9ZM22.2334 38.3C23.0112 37.5222 23.961 37.1275 25.0827 37.116C26.2054 37.1053 27.1556 37.4889 27.9334 38.2667C28.7112 39.0444 29.0943 39.9942 29.0827 41.116C29.0721 42.2387 28.6778 43.1889 27.9001 43.9667C27.3445 44.5222 26.417 45 25.1174 45.4C23.817 45.8 22.0223 46.1555 19.7334 46.4667C20.0445 44.1778 20.4001 42.3831 20.8001 41.0827C21.2001 39.7831 21.6778 38.8555 22.2334 38.3ZM24.1334 40.1667C23.9112 40.3889 23.689 40.7947 23.4667 41.384C23.2445 41.9724 23.089 42.5667 23.0001 43.1667C23.6001 43.0778 24.1947 42.928 24.7841 42.7173C25.3725 42.5058 25.7778 42.2889 26.0001 42.0667C26.2667 41.8 26.4112 41.4778 26.4334 41.1C26.4556 40.7222 26.3334 40.4 26.0667 40.1333C25.8001 39.8667 25.4778 39.7387 25.1001 39.7493C24.7223 39.7609 24.4001 39.9 24.1334 40.1667Z" fill="white"/>
</svg>
