<svg width="66" height="66" viewBox="0 0 66 66" fill="none" xmlns="http://www.w3.org/2000/svg">
<circle cx="33" cy="33" r="33" fill="white" fill-opacity="0.1"/>
<path d="M40.9998 37H38.3332V39.6667H40.9998M40.9998 31.6667H38.3332V34.3333H40.9998M43.6665 42.3333H32.9998V39.6667H35.6665V37H32.9998V34.3333H35.6665V31.6667H32.9998V29H43.6665M30.3332 26.3333H27.6665V23.6667H30.3332M30.3332 31.6667H27.6665V29H30.3332M30.3332 37H27.6665V34.3333H30.3332M30.3332 42.3333H27.6665V39.6667H30.3332M24.9998 26.3333H22.3332V23.6667H24.9998M24.9998 31.6667H22.3332V29H24.9998M24.9998 37H22.3332V34.3333H24.9998M24.9998 42.3333H22.3332V39.6667H24.9998M32.9998 26.3333V21H19.6665V45H46.3332V26.3333H32.9998Z" fill="white"/>
</svg>
