<svg width="66" height="66" viewBox="0 0 66 66" fill="none" xmlns="http://www.w3.org/2000/svg">
<circle opacity="0.1" cx="33" cy="33" r="33" fill="white"/>
<path d="M43.896 26H41.4146L35.3266 32.0853C35.5363 32.6197 35.5556 33.21 35.3812 33.757C35.2069 34.3039 34.8495 34.7741 34.3692 35.0885C33.889 35.403 33.3151 35.5424 32.744 35.4835C32.173 35.4245 31.6397 35.1708 31.2338 34.7649C30.8279 34.3589 30.5741 33.8256 30.5152 33.2546C30.4562 32.6836 30.5957 32.1097 30.9101 31.6294C31.2245 31.1491 31.6948 30.7918 32.2417 30.6174C32.7886 30.443 33.3789 30.4623 33.9133 30.672L40 24.5853V22.104C40.0001 21.772 40.132 21.4536 40.3666 21.2187L42.6733 18.912C42.7159 18.8689 42.7695 18.8383 42.8283 18.8235C42.887 18.8087 42.9487 18.8103 43.0066 18.828C43.1253 18.8627 43.2133 18.9613 43.2373 19.0827L43.8506 22.1507L46.9173 22.764C47.0373 22.788 47.136 22.876 47.1706 22.9947C47.1881 23.0523 47.1897 23.1136 47.1751 23.1721C47.1606 23.2306 47.1305 23.284 47.088 23.3267L44.78 25.6333C44.6639 25.7496 44.5262 25.8418 44.3745 25.9047C44.2228 25.9676 44.0602 26 43.896 26Z" fill="white"/>
<path d="M20.5 33C20.5 36.3152 21.817 39.4946 24.1612 41.8388C26.5054 44.183 29.6848 45.5 33 45.5C34.6415 45.5 36.267 45.1767 37.7835 44.5485C39.3001 43.9203 40.6781 42.9996 41.8388 41.8388C42.9996 40.6781 43.9203 39.3001 44.5485 37.7836C45.1767 36.267 45.5 34.6415 45.5 33C45.5 31.8027 45.332 30.6453 45.0187 29.5507C44.9564 29.2993 44.994 29.0336 45.1237 28.8095C45.2533 28.5853 45.4649 28.4202 45.7138 28.3489C45.9627 28.2775 46.2296 28.3055 46.4583 28.427C46.687 28.5484 46.8597 28.7538 46.94 29C47.3053 30.272 47.5 31.6133 47.5 33C47.5 41.008 41.008 47.5 33 47.5C24.992 47.5 18.5 41.008 18.5 33C18.5 24.992 24.992 18.5 33 18.5C34.3533 18.4987 35.6987 18.6867 37 19.0587C37.1269 19.0943 37.2455 19.1546 37.349 19.2362C37.4525 19.3177 37.5388 19.419 37.6031 19.534C37.6673 19.6491 37.7082 19.7757 37.7233 19.9066C37.7384 20.0375 37.7275 20.1702 37.6913 20.2968C37.655 20.4235 37.594 20.5418 37.5119 20.6448C37.4297 20.7479 37.328 20.8337 37.2126 20.8973C37.0972 20.9609 36.9703 21.0011 36.8394 21.0155C36.7084 21.0299 36.5758 21.0183 36.4493 20.9813C35.3276 20.661 34.1666 20.499 33 20.5C29.6848 20.5 26.5054 21.817 24.1612 24.1612C21.817 26.5054 20.5 29.6848 20.5 33Z" fill="white"/>
<path d="M26.4998 33C26.5035 33.8831 26.6872 34.7562 27.0396 35.5659C27.392 36.3757 27.9058 37.1051 28.5495 37.7097C29.1932 38.3142 29.9534 38.7812 30.7836 39.0822C31.6139 39.3832 32.4967 39.5118 33.3783 39.4602C34.2599 39.4085 35.1217 39.1778 35.9112 38.782C36.7006 38.3861 37.4011 37.8336 37.9698 37.158C38.5386 36.4825 38.9637 35.6981 39.2192 34.8527C39.4747 34.0074 39.5552 33.1188 39.4558 32.2413C39.4278 32.0636 39.4484 31.8816 39.5154 31.7147C39.5824 31.5477 39.6934 31.402 39.8364 31.2929C39.9795 31.1839 40.1494 31.1155 40.3282 31.0952C40.507 31.0748 40.6879 31.1032 40.8518 31.1773C41.1865 31.3267 41.4118 31.6453 41.4412 32.0107C41.6482 33.7643 41.3037 35.5389 40.4557 37.0878C39.6076 38.6367 38.2981 39.8828 36.7091 40.6531C35.1201 41.4234 33.3307 41.6796 31.5894 41.3859C29.8482 41.0923 28.2416 40.2635 26.9932 39.0147C25.745 37.7672 24.916 36.1623 24.6211 34.4225C24.3261 32.6827 24.5799 30.8942 25.3472 29.3051C26.1145 27.716 27.3572 26.4051 28.9031 25.5541C30.449 24.7031 32.2214 24.3543 33.9745 24.556C34.107 24.5683 34.2358 24.6069 34.3532 24.6696C34.4706 24.7323 34.5743 24.8178 34.6582 24.9211C34.7421 25.0244 34.8046 25.1434 34.8419 25.2712C34.8793 25.3989 34.8907 25.5328 34.8757 25.6651C34.8606 25.7973 34.8192 25.9252 34.7541 26.0413C34.6889 26.1573 34.6012 26.2592 34.4962 26.3409C34.3912 26.4227 34.2709 26.4826 34.1424 26.5173C34.0138 26.5519 33.8797 26.5605 33.7478 26.5427C32.8372 26.4374 31.9146 26.5259 31.0406 26.8023C30.1666 27.0788 29.3609 27.5369 28.6764 28.1467C27.992 28.7565 27.4442 29.5041 27.0691 30.3406C26.694 31.177 26.5 32.0833 26.4998 33Z" fill="white"/>
</svg>
